HIERARCHY
ROOT Root
{
	OFFSET 0.00000 0.00000 0.00000
	CHANNELS 6 Xposition Yposition Zposition Zrotation Xrotation Yrotation
	JOINT Hips
	{
		OFFSET 0 0 0	
		CHANNELS 3 Zrotation Xrotation Yrotation
		JOINT Spine
		{
			OFFSET 0 4 0	
			CHANNELS 3 Zrotation Xrotation Yrotation
			JOINT Spine1
			{
				OFFSET 0 19.4 0	
				CHANNELS 3 Zrotation Xrotation Yrotation
				JOINT Spine2
				{
					OFFSET 0 16.6 0	
					CHANNELS 3 Zrotation Xrotation Yrotation
					JOINT LeftCollar
					{
						OFFSET 0 10 0	
						CHANNELS 3 Zrotation Xrotation Yrotation
						JOINT LeftArm
						{
							OFFSET 15.6 -2 3	
							CHANNELS 3 Zrotation Xrotation Yrotation
							JOINT LeftForeArm
							{
								OFFSET 3.5 -27 -1	
								CHANNELS 3 Zrotation Xrotation Yrotation
								JOINT LeftHand
								{
									OFFSET 1 -27 1	
									CHANNELS 3 Zrotation Xrotation Yrotation
									End Site
									{
										OFFSET 0 -15 0
									}
								}
							}
						}
					}
					JOINT RightCollar
					{
						OFFSET 0 10 0	
						CHANNELS 3 Zrotation Xrotation Yrotation
						JOINT RightArm
						{
							OFFSET -15.6 -2 3	
							CHANNELS 3 Zrotation Xrotation Yrotation
							JOINT RightForeArm
							{
								OFFSET -3.5 -27 -1	
								CHANNELS 3 Zrotation Xrotation Yrotation
								JOINT RightHand
								{
									OFFSET -1 -27 1	
									CHANNELS 3 Zrotation Xrotation Yrotation
									End Site
									{
										OFFSET 0 -15 0
									}
								}
							}
						}
					}
					JOINT Neck
					{
						OFFSET 0 10 0	
						CHANNELS 3 Zrotation Xrotation Yrotation
						JOINT Head
						{
							OFFSET 0 12.7 3	
							CHANNELS 3 Zrotation Xrotation Yrotation
							End Site
							{
								OFFSET 0 12.7 3
							}
						}
					}
				}
			}
		}
	}
	JOINT LeftHip
	{
		OFFSET 0 0 0	
		CHANNELS 3 Zrotation Xrotation Yrotation
		JOINT LeftUpLeg
		{
			OFFSET 8.8 -6 0	
			CHANNELS 3 Zrotation Xrotation Yrotation
			JOINT LeftLeg
			{
				OFFSET 0 -39 2	
				CHANNELS 3 Zrotation Xrotation Yrotation
				JOINT LeftFoot
				{
					OFFSET 0 -43 -2	
					CHANNELS 3 Zrotation Xrotation Yrotation
					JOINT LeftFootFront
					{
						OFFSET 0 -7 8.5	
						CHANNELS 3 Zrotation Xrotation Yrotation
						End Site
						{
							OFFSET 0 -0.5 9
						}
					}
				}
				JOINT LeftHeel
				{
					OFFSET 0 -43 -2	
					CHANNELS 3 Zrotation Xrotation Yrotation
					End Site
					{
						OFFSET 0 -7.5 -5
					}
				}
			}
		}
	}
	JOINT RightHip
	{
		OFFSET 0 0 0	
		CHANNELS 3 Zrotation Xrotation Yrotation
		JOINT RightUpLeg
		{
			OFFSET -8.8 -6 0	
			CHANNELS 3 Zrotation Xrotation Yrotation
			JOINT RightLeg
			{
				OFFSET 0 -39 2	
				CHANNELS 3 Zrotation Xrotation Yrotation
				JOINT RightFoot
				{
					OFFSET 0 -43 -2	
					CHANNELS 3 Zrotation Xrotation Yrotation
					JOINT RightFootFront
					{
						OFFSET 0 -7 8.5	
						CHANNELS 3 Zrotation Xrotation Yrotation
						End Site
						{
							OFFSET 0 -0.5 9
						}
					}
				}
				JOINT RightHeel
				{
					OFFSET 0 -43 -2	
					CHANNELS 3 Zrotation Xrotation Yrotation
					End Site
					{
						OFFSET 0 -7.5 -5
					}
				}
			}
		}
	}
}
MOTION
Frames: 15
Frame Time: 0.025
71.567 90.924 -23.966 -0 0 -0 -13.748 11.729 1.3704 4.399 -2.4792 3.9701 4.399 -2.4792 3.9701 3.6834 -2.1032 3.3219 -0 0 -0 -5.9822 -12.262 -8.6908 16.494 2.3706 19.394 2.998 1.2504 -26.876 -0 0 -0 -12.338 -21.046 23.239 11.63 -21.952 -38.91 37.485 7.7836 -1.8135 -2.8527 2.3615 -15.022 0.70099 0.091958 -11.811 -13.748 11.729 1.3704 20.004 -27.443 19.425 23.883 29.287 4.4594 -24.593 -7.4395 -32.189 4.16e-05 -0.92855 -0.0015635 -0 0 -0 -13.748 11.729 1.3704 -8.5697 -27.782 3.6665 30.04 -1.1507 -13.379 -3.9035 18.563 -15.82 0.71962 -1.1884 -1.1668 -0 0 -0 
71.338 90.833 -23.266 -0 0 -0 -12.975 11.625 -0.88355 4.1161 -2.6297 2.7753 4.1161 -2.6297 2.7753 3.4486 -2.2225 2.3184 -0 0 -0 -7.8677 -10.335 -10.26 14.003 2.1236 16.908 2.8726 -3.118 -29.442 -0 0 -0 -13.308 -18.48 23.409 5.8176 -18.363 -44.927 36.265 6.5775 -1.2931 -2.8867 2.903 -12.177 0.45023 0.56448 -9.9753 -12.975 11.625 -0.88355 20.57 -24.664 20.395 23.477 26.645 3.3758 -25.514 -6.9617 -29.173 -0.00012336 -0.92806 -0.0015666 -0 0 -0 -12.975 11.625 -0.88355 -7.5944 -30.05 6.0307 28.271 3.9129 -18.647 -4.2404 13.295 -11.714 -0.16454 -0.76617 -1.1055 -0 0 -0 
71.05 90.772 -22.412 -0 0 -0 -12.283 11.621 -2.8318 4.0366 -3.0605 1.3806 4.0366 -3.0605 1.3806 3.3852 -2.5775 1.1451 -0 0 -0 -9.6615 -8.4833 -10.679 10.925 0.74852 12.66 2.8085 -5.9351 -31.367 -0 0 -0 -15.423 -15.654 21.686 2.1414 -15.138 -47.822 34.455 5.3688 -1.1086 -3.2784 3.899 -8.9368 0.036272 1.2597 -7.9419 -12.283 11.621 -2.8318 21.018 -21.647 20.662 22.62 23.357 2.0495 -26.268 -6.5641 -25.19 -0.00073573 -0.92739 -0.00086614 -0 0 -0 -12.283 11.621 -2.8318 -6.5481 -32.102 6.7634 26.796 9.3393 -21.124 -3.9373 9.6239 -7.5749 -0.52908 -0.31387 -0.3863 -0 0 -0 
70.676 90.737 -21.425 -0 0 -0 -11.637 11.806 -4.5942 4.0619 -3.638 -0.058783 4.0619 -3.638 -0.058782 3.4114 -3.0558 -0.066726 -0 0 -0 -11.147 -7.7698 -10.123 6.8186 -0.88936 7.3163 3.046 -7.2038 -32.892 -0 0 -0 -18.658 -13.073 17.849 0.26202 -12.314 -47.591 32.12 3.9138 -1.3849 -3.8201 5.0936 -5.5814 -0.39009 2.049 -5.8516 -11.637 11.806 -4.5942 21.653 -18.614 20.103 21.17 19.8 0.91735 -26.899 -6.2151 -20.462 -0.0012296 -0.92719 -0.00021208 -0 0 -0 -11.637 11.806 -4.5942 -5.1818 -33.838 5.988 24.575 14.743 -17.892 -2.2645 7.0459 -7.0261 -0.38958 0.053611 0.6033 -0 0 -0 
70.183 90.728 -20.338 -0 0 -0 -10.733 12.249 -6.3609 3.9829 -4.3408 -1.4241 3.9829 -4.3408 -1.4241 3.3518 -3.6398 -1.2162 -0 0 -0 -11.809 -8.2114 -9.393 1.4076 -2.4139 1.0142 4.0129 -7.1527 -32.95 -0 0 -0 -22.723 -10.793 12.769 -0.75791 -9.6201 -45.367 29.591 2.3956 -2.1376 -4.2298 6.3765 -2.3408 -0.7204 2.8342 -3.8214 -10.733 12.249 -6.3609 22.466 -15.971 18.965 19.153 16.283 0.53927 -27.383 -5.589 -15.668 -0.001707 -0.92724 -0.00056904 -0 0 -0 -10.733 12.249 -6.3609 -3.7535 -35.033 5.4828 21.422 18.852 -10.988 0.4718 4.9911 -9.8087 -0.21844 0.01494 0.56491 -0 0 -0 
69.549 90.744 -19.195 -0 0 -0 -9.1796 12.9 -8.2942 3.6224 -5.262 -2.6701 3.6224 -5.262 -2.6701 3.0579 -4.409 -2.2643 -0 0 -0 -11.78 -8.841 -9.5523 -4.6917 -4.3568 -4.8365 5.7301 -5.8728 -31.76 -0 0 -0 -27.077 -8.3794 7.9524 -1.9685 -7.2013 -43.157 26.778 1.5375 -2.7999 -4.4018 7.8504 0.71238 -0.99717 3.6201 -1.8821 -9.1796 12.9 -8.2942 23.094 -14.152 18.019 16.738 13.554 -0.043842 -27.483 -5.3248 -10.958 -0.0018492 -0.92713 -0.0013617 -0 0 -0 -9.1796 12.9 -8.2942 -3.0201 -35.85 6.0558 18.671 21.605 -4.5912 3.0813 2.6208 -13.348 -0.14322 -0.09925 0.025531 -0 0 -0 
68.743 90.785 -18.034 -0 0 -0 -6.9107 13.503 -10.4 2.9306 -6.2402 -3.7855 2.9306 -6.2402 -3.7855 2.488 -5.2291 -3.1992 -0 0 -0 -11.431 -9.5089 -10.962 -10.873 -7.1382 -8.4129 7.8289 -3.6113 -31.284 -0 0 -0 -31.211 -6.1272 4.0376 -3.6177 -5.2384 -41.963 23.321 1.6768 -2.8354 -4.3086 9.3087 3.5364 -1.2493 4.3164 -0.043626 -6.9107 13.503 -10.4 23.186 -13.318 17.977 14.552 12.996 -3.1716 -27.23 -7.2533 -5.7157 -0.0012255 -0.92734 -0.00093059 -0 0 -0 -6.9107 13.503 -10.4 -2.9577 -36.325 7.4122 16.812 23.858 -1.5167 4.7828 -0.18462 -14.638 0.0005084 -0.028698 -0.19782 -0 0 -0 
67.748 90.852 -16.891 -0 0 -0 -4.1184 13.925 -12.488 1.9553 -7.0156 -4.8128 1.9553 -7.0156 -4.8128 1.6809 -5.8825 -4.0554 -0 0 -0 -10.778 -10.704 -13.238 -16.821 -10.745 -9.841 9.7378 -0.89639 -32.051 -0 0 -0 -35.036 -4.854 0.32198 -5.2314 -3.3914 -41.007 19.262 2.4058 -2.3678 -3.916 10.391 6.1131 -1.4397 4.7679 1.6709 -4.1184 13.925 -12.488 22.559 -13.578 18.632 13.476 15.452 -9.181 -26.768 -12.091 -0.053344 -0.00066674 0.00071273 -0.00030769 -0 0 -0 -4.1184 13.925 -12.488 -3.1754 -36.526 8.2307 15.076 26.012 -1.0851 5.8851 -2.7748 -12.664 -0.0031043 -3.5173 -0.18676 -0 0 -0 
66.573 90.941 -15.789 -0 0 -0 -1.1324 14.008 -14.326 0.8869 -7.4308 -5.8601 0.8869 -7.4307 -5.8601 0.79572 -6.2363 -4.9254 -0 0 -0 -9.8702 -12.614 -15.678 -22.369 -15.066 -10.765 10.755 1.909 -32.612 -0 0 -0 -38.893 -4.9678 -4.1134 -6.527 -1.3238 -38.993 15.091 3.3482 -1.7176 -3.3769 10.922 8.5622 -1.5833 4.94 3.2868 -1.1324 14.008 -14.326 21.244 -14.657 19.131 14.009 19.937 -14.404 -26.695 -17.635 3.5663 -0.000316 0.0011845 -0.0001159 -0 0 -0 -1.1324 14.008 -14.326 -3.2654 -36.41 8.187 12.747 27.674 0.13 7.0518 -4.7393 -10.378 -0.35175 -3.3878 -0.080283 -0 0 -0 
65.249 91.044 -14.74 -0 0 -0 1.5976 13.498 -15.862 -0.10653 -7.5964 -6.9324 -0.10653 -7.5964 -6.9324 -0.027233 -6.3827 -5.8163 -0 0 -0 -8.883 -14.558 -17.871 -27.528 -19.992 -12.109 10.47 4.6292 -31.948 -0 0 -0 -42.976 -5.7777 -9.1513 -7.6648 0.76197 -35.732 11.41 4.6035 -0.77661 -2.8195 11.252 10.935 -1.6509 5.0987 4.8224 1.5976 13.498 -15.862 19.604 -15.786 19.095 16.425 24.358 -15.131 -29.161 -20.783 2.2764 0.0005199 0.0014625 -0.00015128 -0 0 -0 1.5976 13.498 -15.862 -3.1554 -35.531 7.3259 9.9013 28.194 4.1098 8.5937 -5.9887 -9.7472 -0.71077 -3.236 -0.14768 -0 0 -0 
63.814 91.152 -13.736 -0 0 -0 3.8983 12.436 -17.359 -1.1437 -7.8603 -7.7912 -1.1437 -7.8603 -7.7912 -0.88749 -6.6142 -6.5268 -0 0 -0 -7.6217 -15.438 -19.951 -32.781 -25.381 -13.846 9.0732 7.1656 -30.361 -0 0 -0 -46.984 -5.942 -13.803 -8.7764 2.4364 -32.272 8.6572 6.4718 0.69617 -2.0362 12.046 12.914 -1.5093 5.584 6.1662 3.8983 12.436 -17.359 18.075 -16.642 19.033 20.127 27.746 -12.712 -34.004 -20.842 -2.327 0.0010637 0.0010826 -0.00068973 -0 0 -0 3.8983 12.436 -17.359 -3.3063 -33.751 5.9876 7.6099 27.549 9.4152 10.769 -6.838 -9.767 -0.69055 -3.0517 -0.32949 -0 0 -0 
62.318 91.255 -12.756 -0 0 -0 5.8941 11.207 -19.194 -2.3618 -8.3672 -8.2221 -2.3618 -8.3672 -8.2221 -1.9005 -7.0526 -6.8747 -0 0 -0 -5.949 -15.238 -21.874 -38.746 -30.643 -15.936 7.0439 9.5584 -28.656 -0 0 -0 -50.59 -5.0016 -17.266 -9.7115 3.6338 -29.486 6.9428 8.8628 2.3266 -0.78812 13.417 14.189 -1.065 6.3616 7.2271 5.8941 11.207 -19.194 16.804 -17.454 19.751 24.512 30.125 -10.256 -39.212 -19.006 -6.9724 0.0011753 0.00010443 -0.0014448 -0 0 -0 5.8941 11.207 -19.194 -3.9637 -31.906 5.4158 6.7836 26.785 12.774 13.811 -7.5894 -8.1744 -0.24163 -2.7216 -0.37882 -0 0 -0 
60.806 91.345 -11.778 -0 0 -0 7.5251 10.344 -21.461 -3.4694 -8.9888 -8.3789 -3.4694 -8.9888 -8.3789 -2.8216 -7.5863 -6.9915 -0 0 -0 -4.2509 -15.031 -22.849 -45.696 -34.929 -18.444 4.7716 11.986 -27.264 -0 0 -0 -54.002 -3.9948 -19.418 -10.474 4.4669 -27.575 6.0042 11.582 3.3445 0.62103 14.867 15.057 -0.41731 7.0985 8.1573 7.5251 10.344 -21.461 15.808 -18.52 21.199 28.792 31.6 -9.5616 -43.096 -17.181 -9.4193 0.00091476 -0.00082587 -0.00095503 -0 0 -0 7.5251 10.344 -21.461 -4.7099 -31 6.2003 7.0601 26.675 13.298 17.602 -7.945 -4.3061 0.34251 -2.122 -0.25248 -0 0 -0 
59.33 91.415 -10.783 -0 0 -0 8.5331 10.065 -24.014 -4.0189 -9.4993 -8.5656 -4.0189 -9.4993 -8.5656 -3.2747 -8.0216 -7.1386 -0 0 -0 -3.0215 -15.711 -22.324 -53.321 -37.958 -21.503 2.407 14.653 -25.462 -0 0 -0 -57.63 -4.2398 -20.837 -11.368 4.9339 -26.132 5.4091 14.432 3.3803 1.5542 15.91 16.092 0.19252 7.5844 9.1835 8.5331 10.065 -24.014 15.373 -19.648 22.291 31.657 32.685 -10.476 -45.033 -16.946 -8.9724 0.0010305 -0.0010189 -0.00044298 -0 0 -0 8.5331 10.065 -24.014 -4.9904 -30.985 7.14 7.3353 27.146 13.63 21.293 -7.7448 0.23544 0.78582 -1.2686 0.099955 -0 0 -0 
57.931 91.464 -9.7602 -0 0 -0 8.9695 10.012 -26.672 -3.99 -9.6233 -8.8321 -3.99 -9.6233 -8.8321 -3.246 -8.1269 -7.3616 -0 0 -0 -2.2877 -17.539 -21.116 -60.935 -40.441 -25.021 -0.0083101 17.541 -22.414 -0 0 -0 -61.356 -5.9461 -22.706 -12.641 4.8689 -24.409 4.8134 17.073 2.6803 1.8414 16.221 17.401 0.59584 7.7403 10.315 8.9695 10.012 -26.672 15.39 -20.344 22.007 32.488 33.934 -11.683 -45.36 -18.317 -6.2603 0.001397 -0.0003328 -0.0004654 -0 0 -0 8.9695 10.012 -26.672 -4.8739 -30.85 6.8918 6.8362 27.742 15.713 23.977 -7.2827 4.2562 0.84055 -0.068812 0.53704 -0 0 -0 
